<svg width="33" height="34" viewBox="0 0 33 34" fill="none" xmlns="http://www.w3.org/2000/svg">
<path d="M14.5654 32.6214C14.5654 33.3796 13.9463 34 13.2069 34H1.35852C0.601876 34 0 33.3796 0 32.6214V1.36138C0 0.620375 0.619072 0 1.35852 0H26.8609C27.6175 0 28.2194 0.620375 28.2194 1.36138V18.0253C28.2194 18.7836 27.6003 19.3867 26.8609 19.3867C26.1042 19.3867 25.5023 18.7663 25.5023 18.0253V2.73999H2.73424V31.26H13.2069C13.9635 31.26 14.5654 31.8804 14.5654 32.6214Z" fill="#FF2100"/>
<path d="M11.831 22.816C12.5877 22.816 13.2068 23.4363 13.2068 24.1773C13.2068 24.9183 12.5877 25.5387 11.831 25.5387H8.20259C7.44595 25.5387 6.84407 24.9183 6.84407 24.1773C6.84407 23.4363 7.46314 22.816 8.20259 22.816H11.831ZM21.8566 16.8879C21.8566 16.1297 21.2375 15.5266 20.4981 15.5266H8.20259C7.44595 15.5266 6.84407 16.1469 6.84407 16.8879C6.84407 17.6289 7.46314 18.2493 8.20259 18.2493H20.4981C21.2375 18.2493 21.8566 17.6289 21.8566 16.8879ZM20.4465 7.96143H8.151C7.39436 7.96143 6.79248 8.5818 6.79248 9.3228C6.79248 10.081 7.41155 10.6842 8.151 10.6842H20.4465C21.2031 10.6842 21.805 10.0638 21.805 9.3228C21.805 8.5818 21.2031 7.96143 20.4465 7.96143ZM32.5356 21.3512C31.9681 20.8514 31.1083 20.9031 30.5924 21.4718L23.0947 29.8296L19.3631 26.1936C18.8128 25.6766 17.953 25.6938 17.4199 26.2453C16.904 26.7967 16.9212 27.6583 17.4715 28.1925L22.2521 32.8109C22.51 33.0522 22.8368 33.2072 23.2151 33.2072H23.2667C23.6278 33.19 23.9889 33.0177 24.2297 32.742L32.6559 23.3502C33.1546 22.7298 33.1031 21.8509 32.5356 21.3512Z" fill="#159AC3"/>
</svg>
