<svg width="23" height="16" viewBox="0 0 23 16" fill="none" xmlns="http://www.w3.org/2000/svg">
<path fill-rule="evenodd" clip-rule="evenodd" d="M21.6537 0.367284C21.7342 0.378193 21.755 0.378193 21.8341 0.398557C22.0411 0.453102 22.2301 0.57092 22.3717 0.733829C22.4522 0.82692 22.5176 0.933102 22.5629 1.04801C22.6082 1.16219 22.6341 1.2851 22.6398 1.40801C22.6563 1.81601 22.44 2.20801 22.0885 2.40728C21.9814 2.46692 21.865 2.5091 21.745 2.52947C21.6645 2.54401 21.6436 2.54183 21.5624 2.54547H1.43741C1.35619 2.54183 1.33535 2.54401 1.25557 2.52947C1.04425 2.4931 0.845879 2.39201 0.691348 2.24219C0.602942 2.15637 0.529629 2.05601 0.475004 1.94547C0.419661 1.83565 0.383723 1.71565 0.367911 1.59347C0.324786 1.2531 0.446973 0.904011 0.691348 0.66692C0.757473 0.60292 0.831505 0.547647 0.911286 0.501829C1.01838 0.442193 1.13482 0.400011 1.25557 0.379647C1.33535 0.365102 1.35619 0.367284 1.43741 0.363647H21.5624C21.5926 0.365102 21.6235 0.366557 21.6537 0.367284Z" fill="white"/>
<path fill-rule="evenodd" clip-rule="evenodd" d="M21.6538 6.91269C21.7343 6.9236 21.7551 6.9236 21.8342 6.94397C22.0412 6.99851 22.2302 7.11633 22.3718 7.27924C22.4523 7.37233 22.5177 7.47851 22.563 7.59342C22.7132 7.9716 22.6378 8.41451 22.3718 8.72069C22.2913 8.81378 22.195 8.89233 22.0886 8.95269C21.9815 9.01233 21.8651 9.05451 21.7451 9.07488C21.6646 9.08942 21.6437 9.08724 21.5625 9.09088H1.4375C1.35628 9.08724 1.33544 9.08942 1.25566 9.07488C1.13491 9.05451 1.01847 9.01233 0.911375 8.95269C0.615969 8.78469 0.411125 8.47851 0.368 8.13888C0.3565 8.04651 0.3565 7.95342 0.368 7.86106C0.383812 7.73888 0.41975 7.61888 0.475094 7.50906C0.529719 7.39851 0.603031 7.29815 0.691438 7.21233C0.845969 7.06251 1.04434 6.96142 1.25566 6.92506C1.33544 6.91051 1.35628 6.91269 1.4375 6.90906H21.5625C21.5927 6.91051 21.6236 6.91197 21.6538 6.91269Z" fill="white"/>
<path fill-rule="evenodd" clip-rule="evenodd" d="M21.6538 13.4582C21.7343 13.4691 21.7551 13.4691 21.8342 13.4895C22.0412 13.544 22.2302 13.6619 22.3718 13.8248C22.6378 14.131 22.7132 14.5739 22.563 14.952C22.5177 15.067 22.4523 15.1731 22.3718 15.2662C22.2913 15.3593 22.195 15.4379 22.0886 15.4982C21.9816 15.5579 21.8651 15.6 21.7451 15.6204C21.6646 15.635 21.6437 15.6328 21.5625 15.6364H1.43752C1.3563 15.6328 1.33546 15.635 1.25568 15.6204C1.04436 15.584 0.845989 15.483 0.691457 15.3331C0.625332 15.2691 0.567832 15.1964 0.519676 15.1171C0.341426 14.8255 0.31052 14.4568 0.43702 14.139C0.48302 14.024 0.547707 13.9179 0.628207 13.8248C0.708707 13.7317 0.80502 13.6531 0.911395 13.5928C1.01849 13.5331 1.13493 13.491 1.25568 13.4706C1.33546 13.456 1.3563 13.4582 1.43752 13.4546H21.5625C21.5927 13.456 21.6236 13.4575 21.6538 13.4582Z" fill="white"/>
</svg>
