<svg width="52" height="38" viewBox="0 0 52 38" fill="none" xmlns="http://www.w3.org/2000/svg">
<g clip-path="url(#clip0)">
<path d="M36.9137 7.52277C28.5833 7.52277 21.8425 14.3504 21.8425 22.7537C21.8425 31.1724 28.5986 37.9846 36.9137 37.9846C45.2441 37.9846 52.0001 31.1569 52.0001 22.7537C52.0001 14.335 45.2441 7.52277 36.9137 7.52277ZM36.9137 35.5439C29.9284 35.5439 24.2576 29.8285 24.2576 22.7537C24.2576 15.6943 29.9284 9.96342 36.9137 9.96342C43.899 9.96342 49.5697 15.6789 49.5697 22.7537C49.5697 29.813 43.899 35.5439 36.9137 35.5439ZM29.0571 6.33333L30.4481 8.57317C29.0418 9.16016 27.7426 9.99431 26.6115 10.9984L25.2205 8.75854C24.9607 8.35691 25.0983 7.81626 25.4957 7.55366L27.8802 6.05529C28.2776 5.79268 28.8125 5.91626 29.0571 6.33333ZM40.1388 5.29837C39.558 5.29837 39.0994 5.77724 39.0994 6.34878V7.24472C38.3658 7.12114 37.6168 7.05935 36.8372 7.05935C36.1188 7.05935 35.4157 7.12114 34.7126 7.22927V6.34878C34.7126 5.77724 34.2388 5.29837 33.6732 5.29837H33.0924C32.5268 5.29837 32.053 4.81951 32.053 4.24797V1.05041C32.053 0.478862 32.5268 0 33.0924 0H40.6891C41.2546 0 41.7285 0.478862 41.7285 1.05041V4.24797C41.7285 4.81951 41.2546 5.29837 40.6891 5.29837H40.1388ZM47.7202 8.03252L46.4516 10.3341C46.4363 10.3496 46.421 10.365 46.4057 10.3805C45.2135 9.43821 43.8837 8.69675 42.4469 8.18699V8.17155L43.7614 5.79268C43.9907 5.37561 44.5257 5.22114 44.9384 5.45285L47.384 6.84309C47.812 7.09024 47.9648 7.61545 47.7202 8.03252Z" fill="#FF2100"/>
<path d="M36.99 14.443V23.2325L44.9688 27.4032C45.458 27.6658 45.6414 28.2682 45.3968 28.7625C45.2134 29.1024 44.8771 29.3032 44.5103 29.3032C44.3574 29.3032 44.2046 29.2723 44.0517 29.1951L35.0029 24.4528V14.443C35.0029 13.8869 35.4462 13.439 35.9965 13.439C36.5315 13.439 36.99 13.8869 36.99 14.443ZM15.224 29.3186C14.5514 29.3186 14.0012 29.8747 14.0012 30.539C14.0012 31.2032 14.5514 31.7593 15.224 31.7593H18.4644C19.137 31.7593 19.672 31.2032 19.672 30.539C19.672 29.8747 19.1217 29.3186 18.4644 29.3186H15.224ZM7.53557 25.2251H18.4644C19.137 25.2251 19.672 24.669 19.672 24.0048C19.672 23.3406 19.1217 22.7845 18.4644 22.7845H7.53557C6.86302 22.7845 6.32804 23.3406 6.32804 24.0048C6.32804 24.669 6.86302 25.2251 7.53557 25.2251ZM0 17.239C0 17.9186 0.810112 18.4593 1.78836 18.4593H17.8989C18.8771 18.4593 19.6872 17.9032 19.6872 17.239C19.6872 16.5593 18.8771 16.0186 17.8989 16.0186H1.78836C0.810112 16.0186 0 16.5747 0 17.239Z" fill="#159AC3"/>
</g>
<defs>
<clipPath id="clip0">
<rect width="52" height="38" fill="white"/>
</clipPath>
</defs>
</svg>
