
<svg width="29" height="38" viewBox="0 0 29 38" fill="none" xmlns="http://www.w3.org/2000/svg">
<path d="M13.1577 29.8507V27.9427C12.1156 27.4434 11.4092 26.3735 11.4092 25.1252C11.4092 23.4134 12.7868 22.0046 14.4999 22.0046C16.1954 22.0046 17.5907 23.3955 17.5907 25.1252C17.5907 26.3022 16.9372 27.3364 15.9835 27.8714V29.8507C15.9835 30.6353 15.3477 31.2595 14.5882 31.2595C13.8288 31.2595 13.1577 30.6353 13.1577 29.8507Z" fill="#159AC3"/>
<path d="M27.5871 15.7278H24.9379V10.4674C24.9379 7.5786 23.7722 4.97513 21.8825 3.0671C19.9927 1.15908 17.4141 0 14.5706 0C8.86602 0 4.18575 4.70765 4.18575 10.4674V15.7278H1.39525C0.618149 15.7278 0 16.3698 0 17.1366V36.5734C0 37.358 0.63581 37.9822 1.39525 37.9822H27.5871C28.3642 37.9822 29 37.3402 29 36.5734V17.1366C29 16.3698 28.3642 15.7278 27.5871 15.7278ZM6.99391 10.4674C6.99391 6.25903 10.4026 2.81746 14.5706 2.81746C16.6547 2.81746 18.5445 3.67339 19.922 5.06429C21.2996 6.45519 22.1474 8.36321 22.1474 10.4674V15.7278H6.99391V10.4674ZM26.1918 35.1647H2.80816V18.5631H26.1918V35.1647Z" fill="#FF2100"/>
</svg>
