<svg width="183" height="30" viewBox="0 0 183 30" fill="none" xmlns="http://www.w3.org/2000/svg">
<path d="M12.4404 13.5811H3.49023V23H0.677734V1.67188H13.8906V3.98633H3.49023V11.2812H12.4404V13.5811Z" fill="white"/>
<path d="M19.7793 23H17.0693V7.15039H19.7793V23ZM16.8496 2.94629C16.8496 2.50684 16.9814 2.13574 17.2451 1.83301C17.5186 1.53027 17.9189 1.37891 18.4463 1.37891C18.9736 1.37891 19.374 1.53027 19.6475 1.83301C19.9209 2.13574 20.0576 2.50684 20.0576 2.94629C20.0576 3.38574 19.9209 3.75195 19.6475 4.04492C19.374 4.33789 18.9736 4.48438 18.4463 4.48438C17.9189 4.48438 17.5186 4.33789 17.2451 4.04492C16.9814 3.75195 16.8496 3.38574 16.8496 2.94629Z" fill="white"/>
<path d="M33.3584 18.7959C33.3584 18.0635 33.0801 17.4971 32.5234 17.0967C31.9766 16.6865 31.0146 16.335 29.6377 16.042C28.2705 15.749 27.1816 15.3975 26.3711 14.9873C25.5703 14.5771 24.9746 14.0889 24.584 13.5225C24.2031 12.9561 24.0127 12.2822 24.0127 11.501C24.0127 10.2021 24.5596 9.10352 25.6533 8.20508C26.7568 7.30664 28.1631 6.85742 29.8721 6.85742C31.6689 6.85742 33.124 7.32129 34.2373 8.24902C35.3604 9.17676 35.9219 10.3633 35.9219 11.8086H33.1973C33.1973 11.0664 32.8799 10.4268 32.2451 9.88965C31.6201 9.35254 30.8291 9.08398 29.8721 9.08398C28.8857 9.08398 28.1143 9.29883 27.5576 9.72852C27.001 10.1582 26.7227 10.7197 26.7227 11.4131C26.7227 12.0674 26.9814 12.5605 27.499 12.8926C28.0166 13.2246 28.9492 13.542 30.2969 13.8447C31.6543 14.1475 32.7529 14.5088 33.5928 14.9287C34.4326 15.3486 35.0527 15.8564 35.4531 16.4521C35.8633 17.0381 36.0684 17.7559 36.0684 18.6055C36.0684 20.0215 35.502 21.1592 34.3691 22.0186C33.2363 22.8682 31.7666 23.293 29.96 23.293C28.6904 23.293 27.5674 23.0684 26.5908 22.6191C25.6143 22.1699 24.8477 21.5449 24.291 20.7441C23.7441 19.9336 23.4707 19.0596 23.4707 18.1221H26.1807C26.2295 19.0303 26.5908 19.7529 27.2646 20.29C27.9482 20.8174 28.8467 21.0811 29.96 21.0811C30.9854 21.0811 31.8057 20.876 32.4209 20.4658C33.0459 20.0459 33.3584 19.4893 33.3584 18.7959Z" fill="white"/>
<path d="M42.3086 9.06934C43.5098 7.59473 45.0723 6.85742 46.9961 6.85742C50.3457 6.85742 52.0352 8.74707 52.0645 12.5264V23H49.3545V12.5117C49.3447 11.3691 49.0811 10.5244 48.5635 9.97754C48.0557 9.43066 47.2598 9.15723 46.1758 9.15723C45.2969 9.15723 44.5254 9.3916 43.8613 9.86035C43.1973 10.3291 42.6797 10.9443 42.3086 11.7061V23H39.5986V0.5H42.3086V9.06934Z" fill="white"/>
<path d="M59.0664 23H56.3564V7.15039H59.0664V23ZM56.1367 2.94629C56.1367 2.50684 56.2686 2.13574 56.5322 1.83301C56.8057 1.53027 57.2061 1.37891 57.7334 1.37891C58.2607 1.37891 58.6611 1.53027 58.9346 1.83301C59.208 2.13574 59.3447 2.50684 59.3447 2.94629C59.3447 3.38574 59.208 3.75195 58.9346 4.04492C58.6611 4.33789 58.2607 4.48438 57.7334 4.48438C57.2061 4.48438 56.8057 4.33789 56.5322 4.04492C56.2686 3.75195 56.1367 3.38574 56.1367 2.94629Z" fill="white"/>
<path d="M65.9805 7.15039L66.0684 9.14258C67.2793 7.61914 68.8613 6.85742 70.8145 6.85742C74.1641 6.85742 75.8535 8.74707 75.8828 12.5264V23H73.1729V12.5117C73.1631 11.3691 72.8994 10.5244 72.3818 9.97754C71.874 9.43066 71.0781 9.15723 69.9941 9.15723C69.1152 9.15723 68.3438 9.3916 67.6797 9.86035C67.0156 10.3291 66.498 10.9443 66.127 11.7061V23H63.417V7.15039H65.9805Z" fill="white"/>
<path d="M79.3252 14.9434C79.3252 12.4727 79.8965 10.5098 81.0391 9.05469C82.1816 7.58984 83.6953 6.85742 85.5801 6.85742C87.5137 6.85742 89.0225 7.54102 90.1064 8.9082L90.2383 7.15039H92.7139V22.6191C92.7139 24.6699 92.1035 26.2861 90.8828 27.4678C89.6719 28.6494 88.041 29.2402 85.9902 29.2402C84.8477 29.2402 83.7295 28.9961 82.6357 28.5078C81.542 28.0195 80.707 27.3506 80.1309 26.501L81.5371 24.875C82.6992 26.3105 84.1201 27.0283 85.7998 27.0283C87.1182 27.0283 88.1436 26.6572 88.876 25.915C89.6182 25.1729 89.9893 24.1279 89.9893 22.7803V21.418C88.9053 22.668 87.4258 23.293 85.5508 23.293C83.6953 23.293 82.1914 22.5459 81.0391 21.0518C79.8965 19.5576 79.3252 17.5215 79.3252 14.9434ZM82.0498 15.251C82.0498 17.0381 82.416 18.4443 83.1484 19.4697C83.8809 20.4854 84.9062 20.9932 86.2246 20.9932C87.9336 20.9932 89.1885 20.2168 89.9893 18.6641V11.4277C89.1592 9.91406 87.9141 9.15723 86.2539 9.15723C84.9355 9.15723 83.9053 9.66992 83.1631 10.6953C82.4209 11.7207 82.0498 13.2393 82.0498 15.251Z" fill="white"/>
<path d="M107.509 20.7002H117.616V23H104.682V1.67188H107.509V20.7002Z" fill="white"/>
<path d="M119.682 14.9287C119.682 13.376 119.984 11.9795 120.59 10.7393C121.205 9.49902 122.055 8.54199 123.139 7.86816C124.232 7.19434 125.478 6.85742 126.874 6.85742C129.032 6.85742 130.775 7.60449 132.104 9.09863C133.441 10.5928 134.11 12.5801 134.11 15.0605V15.251C134.11 16.7939 133.812 18.1807 133.217 19.4111C132.631 20.6318 131.786 21.584 130.683 22.2676C129.589 22.9512 128.329 23.293 126.903 23.293C124.755 23.293 123.012 22.5459 121.674 21.0518C120.346 19.5576 119.682 17.5801 119.682 15.1191V14.9287ZM122.406 15.251C122.406 17.0088 122.812 18.4199 123.622 19.4844C124.442 20.5488 125.536 21.0811 126.903 21.0811C128.28 21.0811 129.374 20.5439 130.185 19.4697C130.995 18.3857 131.4 16.8721 131.4 14.9287C131.4 13.1904 130.985 11.7842 130.155 10.71C129.335 9.62598 128.241 9.08398 126.874 9.08398C125.536 9.08398 124.457 9.61621 123.637 10.6807C122.816 11.7451 122.406 13.2686 122.406 15.251Z" fill="white"/>
<path d="M147.294 23C147.138 22.6875 147.011 22.1309 146.913 21.3301C145.653 22.6387 144.149 23.293 142.401 23.293C140.839 23.293 139.555 22.8535 138.549 21.9746C137.553 21.0859 137.055 19.9629 137.055 18.6055C137.055 16.9551 137.68 15.6758 138.93 14.7676C140.189 13.8496 141.957 13.3906 144.232 13.3906H146.869V12.1455C146.869 11.1982 146.586 10.4463 146.02 9.88965C145.453 9.32324 144.618 9.04004 143.515 9.04004C142.548 9.04004 141.737 9.28418 141.083 9.77246C140.429 10.2607 140.102 10.8516 140.102 11.5449H137.377C137.377 10.7539 137.655 9.99219 138.212 9.25977C138.778 8.51758 139.54 7.93164 140.497 7.50195C141.464 7.07227 142.523 6.85742 143.676 6.85742C145.502 6.85742 146.933 7.31641 147.968 8.23438C149.003 9.14258 149.54 10.3975 149.579 11.999V19.2939C149.579 20.749 149.765 21.9062 150.136 22.7656V23H147.294ZM142.797 20.9346C143.646 20.9346 144.452 20.7148 145.214 20.2754C145.976 19.8359 146.527 19.2646 146.869 18.5615V15.3096H144.745C141.425 15.3096 139.765 16.2812 139.765 18.2246C139.765 19.0742 140.048 19.7383 140.614 20.2168C141.181 20.6953 141.908 20.9346 142.797 20.9346Z" fill="white"/>
<path d="M156.391 7.15039L156.479 9.14258C157.689 7.61914 159.271 6.85742 161.225 6.85742C164.574 6.85742 166.264 8.74707 166.293 12.5264V23H163.583V12.5117C163.573 11.3691 163.31 10.5244 162.792 9.97754C162.284 9.43066 161.488 9.15723 160.404 9.15723C159.525 9.15723 158.754 9.3916 158.09 9.86035C157.426 10.3291 156.908 10.9443 156.537 11.7061V23H153.827V7.15039H156.391Z" fill="white"/>
<path d="M179.608 18.7959C179.608 18.0635 179.33 17.4971 178.773 17.0967C178.227 16.6865 177.265 16.335 175.888 16.042C174.521 15.749 173.432 15.3975 172.621 14.9873C171.82 14.5771 171.225 14.0889 170.834 13.5225C170.453 12.9561 170.263 12.2822 170.263 11.501C170.263 10.2021 170.81 9.10352 171.903 8.20508C173.007 7.30664 174.413 6.85742 176.122 6.85742C177.919 6.85742 179.374 7.32129 180.487 8.24902C181.61 9.17676 182.172 10.3633 182.172 11.8086H179.447C179.447 11.0664 179.13 10.4268 178.495 9.88965C177.87 9.35254 177.079 9.08398 176.122 9.08398C175.136 9.08398 174.364 9.29883 173.808 9.72852C173.251 10.1582 172.973 10.7197 172.973 11.4131C172.973 12.0674 173.231 12.5605 173.749 12.8926C174.267 13.2246 175.199 13.542 176.547 13.8447C177.904 14.1475 179.003 14.5088 179.843 14.9287C180.683 15.3486 181.303 15.8564 181.703 16.4521C182.113 17.0381 182.318 17.7559 182.318 18.6055C182.318 20.0215 181.752 21.1592 180.619 22.0186C179.486 22.8682 178.017 23.293 176.21 23.293C174.94 23.293 173.817 23.0684 172.841 22.6191C171.864 22.1699 171.098 21.5449 170.541 20.7441C169.994 19.9336 169.721 19.0596 169.721 18.1221H172.431C172.479 19.0303 172.841 19.7529 173.515 20.29C174.198 20.8174 175.097 21.0811 176.21 21.0811C177.235 21.0811 178.056 20.876 178.671 20.4658C179.296 20.0459 179.608 19.4893 179.608 18.7959Z" fill="white"/>
</svg>
