<svg width="162" height="21" viewBox="0 0 162 21" fill="none" xmlns="http://www.w3.org/2000/svg">
<path d="M10.4675 9.5581H2.50281V16.4404H0V0.856269H11.758V2.5474H2.50281V7.87768H10.4675V9.5581Z" fill="white"/>
<path d="M16.9983 16.4404H14.5867V4.85933H16.9983V16.4404ZM14.3912 1.78746C14.3912 1.46636 14.5085 1.19521 14.7431 0.974006C14.9865 0.752803 15.3428 0.642202 15.812 0.642202C16.2813 0.642202 16.6376 0.752803 16.881 0.974006C17.1243 1.19521 17.2459 1.46636 17.2459 1.78746C17.2459 2.10856 17.1243 2.37615 16.881 2.59021C16.6376 2.80428 16.2813 2.91131 15.812 2.91131C15.3428 2.91131 14.9865 2.80428 14.7431 2.59021C14.5085 2.37615 14.3912 2.10856 14.3912 1.78746Z" fill="white"/>
<path d="M29.0822 13.3685C29.0822 12.8333 28.8345 12.4195 28.3391 12.1269C27.8525 11.8272 26.9965 11.5703 25.7712 11.3563C24.5545 11.1422 23.5855 10.8853 22.8642 10.5856C22.1516 10.2859 21.6215 9.92915 21.2739 9.51529C20.935 9.10143 20.7655 8.60907 20.7655 8.03823C20.7655 7.08919 21.2522 6.28644 22.2255 5.62997C23.2075 4.9735 24.4589 4.64526 25.9797 4.64526C27.5787 4.64526 28.8736 4.9842 29.8643 5.66208C30.8637 6.33996 31.3634 7.20693 31.3634 8.263H28.9388C28.9388 7.72069 28.6563 7.25331 28.0915 6.86086C27.5353 6.4684 26.8314 6.27217 25.9797 6.27217C25.102 6.27217 24.4155 6.42915 23.9201 6.74312C23.4248 7.05708 23.1771 7.46738 23.1771 7.97401C23.1771 8.45209 23.4074 8.81244 23.868 9.05505C24.3286 9.29766 25.1585 9.52956 26.3577 9.75076C27.5657 9.97197 28.5434 10.236 29.2907 10.5428C30.0381 10.8496 30.5899 11.2207 30.9462 11.656C31.3112 12.0841 31.4937 12.6086 31.4937 13.2294C31.4937 14.264 30.9897 15.0953 29.9816 15.7232C28.9735 16.344 27.6656 16.6544 26.0579 16.6544C24.9282 16.6544 23.9288 16.4903 23.0598 16.1621C22.1907 15.8338 21.5085 15.3772 21.0132 14.792C20.5265 14.1998 20.2832 13.5612 20.2832 12.8761H22.6948C22.7382 13.5398 23.0598 14.0678 23.6594 14.4602C24.2677 14.8456 25.0672 15.0382 26.0579 15.0382C26.9704 15.0382 27.7004 14.8884 28.2479 14.5887C28.8041 14.2819 29.0822 13.8751 29.0822 13.3685Z" fill="white"/>
<path d="M37.0468 6.26147C38.1158 5.184 39.5062 4.64526 41.2182 4.64526C44.199 4.64526 45.7024 6.02599 45.7285 8.78746V16.4404H43.3169V8.77676C43.3082 7.9419 43.0736 7.32467 42.613 6.92508C42.1611 6.52548 41.4528 6.32569 40.4882 6.32569C39.7061 6.32569 39.0195 6.49694 38.4286 6.83945C37.8377 7.18196 37.3771 7.6315 37.0468 8.18807V16.4404H34.6353V0H37.0468V6.26147Z" fill="white"/>
<path d="M51.9594 16.4404H49.5479V4.85933H51.9594V16.4404ZM49.3523 1.78746C49.3523 1.46636 49.4697 1.19521 49.7043 0.974006C49.9476 0.752803 50.3039 0.642202 50.7732 0.642202C51.2425 0.642202 51.5988 0.752803 51.8421 0.974006C52.0854 1.19521 52.2071 1.46636 52.2071 1.78746C52.2071 2.10856 52.0854 2.37615 51.8421 2.59021C51.5988 2.80428 51.2425 2.91131 50.7732 2.91131C50.3039 2.91131 49.9476 2.80428 49.7043 2.59021C49.4697 2.37615 49.3523 2.10856 49.3523 1.78746Z" fill="white"/>
<path d="M58.1122 4.85933L58.1904 6.31498C59.268 5.20183 60.6758 4.64526 62.4139 4.64526C65.3947 4.64526 66.8981 6.02599 66.9242 8.78746V16.4404H64.5126V8.77676C64.5039 7.9419 64.2693 7.32467 63.8087 6.92508C63.3568 6.52548 62.6485 6.32569 61.6839 6.32569C60.9018 6.32569 60.2152 6.49694 59.6243 6.83945C59.0334 7.18196 58.5728 7.6315 58.2425 8.18807V16.4404H55.831V4.85933H58.1122Z" fill="white"/>
<path d="M69.9875 10.5535C69.9875 8.74822 70.4959 7.31397 71.5127 6.25076C72.5294 5.18043 73.8764 4.64526 75.5537 4.64526C77.2743 4.64526 78.617 5.14475 79.5816 6.14373L79.6989 4.85933H81.9019V16.1621C81.9019 17.6606 81.3588 18.8415 80.2725 19.7049C79.1949 20.5683 77.7436 21 75.9187 21C74.9019 21 73.9068 20.8216 72.9335 20.4648C71.9602 20.1081 71.2172 19.6193 70.7045 18.9985L71.9559 17.8104C72.99 18.8593 74.2545 19.3838 75.7492 19.3838C76.9224 19.3838 77.8349 19.1126 78.4866 18.5703C79.1471 18.028 79.4773 17.2645 79.4773 16.2798V15.2844C78.5127 16.1978 77.1961 16.6544 75.5276 16.6544C73.8764 16.6544 72.5381 16.1086 71.5127 15.0168C70.4959 13.9251 69.9875 12.4373 69.9875 10.5535ZM72.4121 10.7783C72.4121 12.0841 72.738 13.1116 73.3898 13.8609C74.0415 14.603 74.954 14.974 76.1272 14.974C77.648 14.974 78.7647 14.4067 79.4773 13.2722V7.98471C78.7387 6.8787 77.6306 6.32569 76.1533 6.32569C74.9801 6.32569 74.0633 6.70031 73.4028 7.44954C72.7423 8.19878 72.4121 9.30836 72.4121 10.7783Z" fill="white"/>
<path d="M95.0678 14.7599H104.062V16.4404H92.5519V0.856269H95.0678V14.7599Z" fill="white"/>
<path d="M105.9 10.5428C105.9 9.40826 106.17 8.38787 106.708 7.48165C107.256 6.57543 108.012 5.87615 108.977 5.38379C109.95 4.89144 111.058 4.64526 112.301 4.64526C114.221 4.64526 115.772 5.19113 116.954 6.28287C118.145 7.37462 118.74 8.82671 118.74 10.6391V10.7783C118.74 11.9057 118.475 12.919 117.945 13.818C117.424 14.71 116.672 15.4057 115.69 15.9052C114.717 16.4047 113.596 16.6544 112.327 16.6544C110.415 16.6544 108.864 16.1086 107.673 15.0168C106.491 13.9251 105.9 12.4801 105.9 10.682V10.5428ZM108.325 10.7783C108.325 12.0627 108.686 13.0938 109.407 13.8716C110.137 14.6493 111.11 15.0382 112.327 15.0382C113.552 15.0382 114.525 14.6458 115.247 13.8609C115.968 13.0688 116.329 11.9628 116.329 10.5428C116.329 9.27268 115.959 8.24516 115.221 7.46024C114.491 6.6682 113.517 6.27217 112.301 6.27217C111.11 6.27217 110.15 6.66106 109.42 7.43884C108.69 8.21662 108.325 9.32977 108.325 10.7783Z" fill="white"/>
<path d="M130.472 16.4404C130.333 16.212 130.22 15.8053 130.133 15.2202C129.012 16.1763 127.674 16.6544 126.118 16.6544C124.728 16.6544 123.585 16.3333 122.69 15.6911C121.804 15.0418 121.36 14.2212 121.36 13.2294C121.36 12.0234 121.917 11.0887 123.029 10.4251C124.15 9.75433 125.723 9.41896 127.748 9.41896H130.094V8.50917C130.094 7.81702 129.842 7.26758 129.338 6.86086C128.834 6.44699 128.091 6.24006 127.109 6.24006C126.249 6.24006 125.527 6.41845 124.945 6.77523C124.363 7.13201 124.072 7.56371 124.072 8.07034H121.647C121.647 7.49235 121.895 6.93578 122.39 6.40061C122.894 5.85831 123.572 5.43017 124.424 5.11621C125.284 4.80224 126.227 4.64526 127.252 4.64526C128.877 4.64526 130.151 4.98063 131.072 5.65138C131.993 6.31498 132.471 7.23191 132.506 8.40214V13.7324C132.506 14.7956 132.671 15.6412 133.001 16.2691V16.4404H130.472ZM126.47 14.9312C127.226 14.9312 127.943 14.7706 128.621 14.4495C129.299 14.1284 129.79 13.711 130.094 13.1972V10.8211H128.204C125.249 10.8211 123.772 11.5311 123.772 12.9511C123.772 13.5719 124.024 14.0571 124.528 14.4067C125.032 14.7564 125.679 14.9312 126.47 14.9312Z" fill="white"/>
<path d="M138.567 4.85933L138.645 6.31498C139.723 5.20183 141.131 4.64526 142.869 4.64526C145.85 4.64526 147.353 6.02599 147.379 8.78746V16.4404H144.968V8.77676C144.959 7.9419 144.724 7.32467 144.264 6.92508C143.812 6.52548 143.104 6.32569 142.139 6.32569C141.357 6.32569 140.67 6.49694 140.079 6.83945C139.488 7.18196 139.028 7.6315 138.698 8.18807V16.4404H136.286V4.85933H138.567Z" fill="white"/>
<path d="M159.228 13.3685C159.228 12.8333 158.981 12.4195 158.485 12.1269C157.999 11.8272 157.143 11.5703 155.917 11.3563C154.701 11.1422 153.732 10.8853 153.01 10.5856C152.298 10.2859 151.768 9.92915 151.42 9.51529C151.081 9.10143 150.912 8.60907 150.912 8.03823C150.912 7.08919 151.398 6.28644 152.372 5.62997C153.354 4.9735 154.605 4.64526 156.126 4.64526C157.725 4.64526 159.02 4.9842 160.011 5.66208C161.01 6.33996 161.51 7.20693 161.51 8.263H159.085C159.085 7.72069 158.803 7.25331 158.238 6.86086C157.682 6.4684 156.978 6.27217 156.126 6.27217C155.248 6.27217 154.562 6.42915 154.066 6.74312C153.571 7.05708 153.323 7.46738 153.323 7.97401C153.323 8.45209 153.554 8.81244 154.014 9.05505C154.475 9.29766 155.305 9.52956 156.504 9.75076C157.712 9.97197 158.69 10.236 159.437 10.5428C160.184 10.8496 160.736 11.2207 161.092 11.656C161.458 12.0841 161.64 12.6086 161.64 13.2294C161.64 14.264 161.136 15.0953 160.128 15.7232C159.12 16.344 157.812 16.6544 156.204 16.6544C155.074 16.6544 154.075 16.4903 153.206 16.1621C152.337 15.8338 151.655 15.3772 151.159 14.792C150.673 14.1998 150.429 13.5612 150.429 12.8761H152.841C152.884 13.5398 153.206 14.0678 153.806 14.4602C154.414 14.8456 155.214 15.0382 156.204 15.0382C157.117 15.0382 157.847 14.8884 158.394 14.5887C158.95 14.2819 159.228 13.8751 159.228 13.3685Z" fill="white"/>
</svg>
